<?xml version="1.0" standalone="no"?>
<!DOCTYPE svg PUBLIC "-//W3C//DTD SVG 20010904//EN"
 "http://www.w3.org/TR/2001/REC-SVG-20010904/DTD/svg10.dtd">
<svg version="1.0" xmlns="http://www.w3.org/2000/svg"
 width="700.000000pt" height="700.000000pt" viewBox="0 0 700.000000 700.000000"
 preserveAspectRatio="xMidYMid meet">
<metadata>
Created by potrace 1.11, written by Peter Selinger 2001-2013
</metadata>
<g transform="translate(0.000000,700.000000) scale(0.100000,-0.100000)"
fill="#000000" stroke="none">
<path d="M6605 5913 c-37 -82 -88 -191 -113 -243 -24 -52 -55 -120 -69 -150
-14 -30 -46 -98 -71 -150 -24 -52 -57 -122 -72 -155 -15 -33 -44 -96 -65 -140
-251 -538 -308 -661 -338 -725 -50 -107 -384 -822 -419 -900 -42 -90 -77 -164
-147 -314 -34 -70 -61 -130 -61 -131 0 -2 -31 -69 -70 -150 -38 -81 -70 -148
-70 -150 0 -1 -24 -54 -54 -117 -68 -143 -122 -258 -151 -323 -25 -55 -83
-179 -138 -295 -19 -41 -112 -241 -207 -445 -94 -203 -187 -403 -206 -443 -19
-40 -33 -76 -30 -81 7 -11 137 -63 143 -57 3 2 77 159 165 348 88 189 174 375
193 413 66 142 94 201 118 255 14 30 46 100 72 155 26 55 58 125 72 155 14 30
52 110 84 178 33 68 59 125 59 126 0 2 24 55 54 117 91 193 206 440 206 443 0
2 34 73 75 159 41 86 75 158 75 161 0 2 24 55 54 117 90 192 200 426 233 499
14 30 44 93 66 140 22 47 54 117 72 155 40 87 85 185 137 293 21 46 53 114 70
150 52 114 139 302 200 432 22 47 69 146 103 220 34 74 79 171 100 215 20 44
53 114 72 155 19 41 44 94 55 118 12 23 19 44 17 46 -9 8 -129 66 -137 66 -4
0 -39 -66 -77 -147z"/>
<path d="M2028 5815 c-2 -1 -39 -5 -83 -9 -44 -3 -91 -8 -105 -10 -14 -3 -38
-7 -55 -10 -310 -49 -622 -191 -865 -392 -293 -243 -516 -603 -635 -1024 -30
-107 -28 -97 -55 -240 -20 -109 -25 -146 -45 -350 -9 -91 -10 -463 -1 -540 4
-30 9 -75 11 -100 9 -83 15 -135 19 -157 3 -11 7 -43 11 -70 20 -146 97 -413
170 -589 137 -332 390 -634 684 -818 192 -121 509 -233 736 -261 177 -21 495
-27 590 -11 17 3 59 8 95 11 36 4 83 10 105 15 22 5 54 11 71 14 61 11 211 58
304 96 551 223 904 705 995 1355 3 23 7 51 10 63 l4 22 -393 0 -392 0 -18 -96
c-68 -366 -230 -616 -481 -742 -72 -37 -193 -78 -255 -87 -25 -4 -70 -11 -100
-15 -94 -15 -355 -4 -450 18 -276 64 -507 229 -668 477 -114 176 -222 472
-247 680 -4 28 -8 57 -11 65 -2 8 -6 47 -9 85 -3 39 -8 81 -10 95 -6 32 -6
407 -1 440 3 14 7 61 10 105 3 44 8 89 10 100 2 11 9 54 16 95 29 179 77 330
163 510 91 192 253 379 412 477 56 35 195 97 254 114 65 19 76 22 179 38 69
11 260 11 342 0 116 -15 144 -21 215 -46 306 -110 482 -327 590 -729 9 -32 18
-63 19 -69 2 -5 7 -25 11 -42 8 -37 9 -37 86 -24 30 6 72 12 94 15 22 3 105
15 185 26 182 27 209 31 318 45 28 4 52 10 52 14 0 17 -34 166 -55 241 -48
171 -98 295 -178 446 -66 122 -132 210 -246 325 -250 249 -553 382 -992 435
-43 5 -406 13 -411 9z"/>
</g>
</svg>
